<svg width="20" height="20" viewBox="0 0 20 20" fill="none" xmlns="http://www.w3.org/2000/svg">
<path fill-rule="evenodd" clip-rule="evenodd" d="M5 10C5 9.83424 5.06585 9.67526 5.18306 9.55805C5.30027 9.44084 5.45924 9.375 5.625 9.375H12.8663L10.1825 6.6925C10.0651 6.57514 9.99921 6.41597 9.99921 6.25C9.99921 6.08403 10.0651 5.92485 10.1825 5.8075C10.2999 5.69014 10.459 5.62421 10.625 5.62421C10.791 5.62421 10.9501 5.69014 11.0675 5.8075L14.8175 9.5575C14.8757 9.61555 14.9219 9.68452 14.9534 9.76045C14.9849 9.83639 15.0011 9.91779 15.0011 10C15.0011 10.0822 14.9849 10.1636 14.9534 10.2395C14.9219 10.3155 14.8757 10.3844 14.8175 10.4425L11.0675 14.1925C10.9501 14.3099 10.791 14.3758 10.625 14.3758C10.459 14.3758 10.2999 14.3099 10.1825 14.1925C10.0651 14.0751 9.99921 13.916 9.99921 13.75C9.99921 13.584 10.0651 13.4249 10.1825 13.3075L12.8663 10.625H5.625C5.45924 10.625 5.30027 10.5591 5.18306 10.4419C5.06585 10.3247 5 10.1658 5 10Z" fill="#333333"/>
</svg>
