<svg width="26" height="26" viewBox="0 0 26 26" fill="none" xmlns="http://www.w3.org/2000/svg">
<path fill-rule="evenodd" clip-rule="evenodd" d="M6.5 13.0001C6.5 12.7846 6.5856 12.5779 6.73798 12.4255C6.89035 12.2732 7.09701 12.1876 7.3125 12.1876H16.7261L13.2372 8.7003C13.0847 8.54773 12.999 8.34081 12.999 8.12505C12.999 7.90929 13.0847 7.70237 13.2372 7.5498C13.3898 7.39723 13.5967 7.31152 13.8125 7.31152C14.0283 7.31152 14.2352 7.39723 14.3877 7.5498L19.2627 12.4248C19.3384 12.5003 19.3984 12.5899 19.4394 12.6886C19.4804 12.7874 19.5015 12.8932 19.5015 13.0001C19.5015 13.1069 19.4804 13.2127 19.4394 13.3115C19.3984 13.4102 19.3384 13.4998 19.2627 13.5753L14.3877 18.4503C14.2352 18.6029 14.0283 18.6886 13.8125 18.6886C13.5967 18.6886 13.3898 18.6029 13.2372 18.4503C13.0847 18.2977 12.999 18.0908 12.999 17.8751C12.999 17.6593 13.0847 17.4524 13.2372 17.2998L16.7261 13.8126H7.3125C7.09701 13.8126 6.89035 13.7269 6.73798 13.5746C6.5856 13.4222 6.5 13.2155 6.5 13.0001Z" fill="white"/>
</svg>
