<svg width="10" height="6" viewBox="0 0 10 6" fill="none" xmlns="http://www.w3.org/2000/svg">
<path d="M1.07314 1.09422C1.13453 1.03426 1.21694 1.00069 1.30276 1.00069C1.38858 1.00069 1.471 1.03426 1.53239 1.09422M1.07314 1.09422L8.86389 1.09354C8.8025 1.03357 8.72008 1 8.63426 1C8.54844 1 8.46603 1.03357 8.40464 1.09354V1.09422L4.96851 4.44372L1.53239 1.09422M1.07314 1.09422C1.04341 1.12335 1.0198 1.15811 1.00367 1.19648C0.987552 1.23485 0.979248 1.27604 0.979248 1.31766C0.979248 1.35928 0.987552 1.40048 1.00367 1.43884C1.0198 1.47721 1.04341 1.51197 1.07314 1.5411L4.72857 5.1051L1.07314 1.09422ZM1.53239 1.09422L1.61964 1.00471L1.6197 1.00477C1.61971 1.00478 1.61972 1.00479 1.61973 1.0048L4.96851 4.26916L8.27964 1.04151V1.0409L8.31729 1.00412C8.40204 0.92134 8.5158 0.875 8.63426 0.875C8.75272 0.875 8.86649 0.92134 8.95123 1.00411L1.53239 1.09422Z" fill="#333333" stroke="#333333" stroke-width="0.25"/>
</svg>
