<svg width="83" height="83" viewBox="0 0 83 83" fill="none" xmlns="http://www.w3.org/2000/svg">
<path d="M41.6875 13.6249C38.7786 13.6249 36.0641 14.4369 33.7499 15.8514C33.5107 14.5719 33.0747 13.3373 32.4574 12.1914C35.3599 10.5852 38.6312 9.76416 41.9481 9.80951C45.2651 9.85487 48.5127 10.765 51.3702 12.45C54.2276 14.1349 56.5959 16.5364 58.2409 19.417C59.8859 22.2976 60.7508 25.5577 60.75 28.8749H70.2851C71.8011 28.8759 73.2547 29.4789 74.3264 30.5512C75.398 31.6236 76 33.0776 76 34.5937V57.4687C76 58.9854 75.3975 60.44 74.325 61.5125C73.2525 62.585 71.798 63.1875 70.2812 63.1875H47.4062C45.8895 63.1875 44.435 62.585 43.3625 61.5125C42.29 60.44 41.6875 58.9854 41.6875 57.4687V47.9375C39.0355 47.9408 36.4121 47.3889 33.9862 46.3171C34.0358 45.0209 34.0625 43.6598 34.0625 42.2187V42.0853C36.3043 43.3815 38.9082 44.1249 41.6875 44.1249V34.5937C41.6875 33.077 42.29 31.6224 43.3625 30.5499C44.435 29.4774 45.8895 28.8749 47.4062 28.8749H56.9375C56.9375 24.8303 55.3308 20.9514 52.4709 18.0915C49.611 15.2316 45.7321 13.6249 41.6875 13.6249ZM60.3687 32.6874C59.6189 36.3496 57.81 39.7109 55.1667 42.3542C52.5235 44.9975 49.1622 46.8063 45.5 47.5562V57.4687C45.5 57.9743 45.7008 58.4592 46.0583 58.8167C46.4158 59.1741 46.9007 59.375 47.4062 59.375H70.2812C70.7868 59.375 71.2717 59.1741 71.6292 58.8167C71.9867 58.4592 72.1875 57.9743 72.1875 57.4687V34.5937C72.1875 34.0881 71.9867 33.6032 71.6292 33.2457C71.2717 32.8883 70.7868 32.6874 70.2812 32.6874H60.3687ZM56.4571 32.6874H47.4062C46.9007 32.6874 46.4158 32.8883 46.0583 33.2457C45.7008 33.6032 45.5 34.0881 45.5 34.5937V43.6446C48.1375 42.9612 50.5443 41.585 52.4709 39.6584C54.3975 37.7318 55.7738 35.325 56.4571 32.6874ZM24.8401 6.47641C25.1565 6.75321 25.3726 7.12685 25.4546 7.53919C25.5367 7.95153 25.4801 8.37943 25.2937 8.75629C25.2615 8.86783 25.2448 8.9833 25.2442 9.09942C25.2442 9.33961 25.3052 9.79711 25.8809 10.369C26.1592 10.6473 26.3727 10.8455 26.6053 11.0629C26.7959 11.2382 26.9979 11.4212 27.2534 11.6729C27.749 12.1456 28.2713 12.7022 28.7403 13.3999C29.7124 14.8601 30.25 16.6863 30.25 19.3436C30.25 22.5957 29.0452 25.3674 27.1657 27.0678L27.4097 27.3499C28.4772 28.6614 29.0986 30.3618 29.4875 32.0393C30.25 35.3562 30.25 39.3441 30.25 42.1234V42.2187C30.25 52.8442 28.8051 58.8717 27.2153 62.3182C26.4146 64.0529 25.5644 65.1586 24.8286 65.8524C24.5295 66.1394 24.1996 66.3926 23.845 66.6073C23.6826 66.7051 23.5131 66.7905 23.3379 66.8628C23.3379 66.8628 22.9071 67 22.625 67C22.3429 67 21.9121 66.8628 21.9121 66.8628C21.735 66.7947 21.5651 66.7091 21.405 66.6073C21.0504 66.3926 20.7205 66.1394 20.4214 65.8524C19.6856 65.1547 18.8354 64.0529 18.0347 62.3182C16.4449 58.8717 15 52.8442 15 42.2187V42.1234C15 39.3402 15 35.3562 15.7625 32.0393C16.1514 30.3618 16.7728 28.6614 17.8403 27.3499C17.9166 27.2546 18.0004 27.1593 18.0843 27.0678C16.2048 25.3674 15 22.5957 15 19.3436C15 18.1008 15.3317 16.6177 15.7892 15.249C16.2467 13.8765 16.8872 12.4582 17.6268 11.3145C18.5075 9.82761 19.7466 8.58092 20.7073 7.74216C21.234 7.27893 21.7837 6.84248 22.3543 6.43447L22.4687 6.35822L22.503 6.33154L22.5144 6.32391L22.5221 6.3201C22.8717 6.08707 23.2884 5.97605 23.7076 6.00432C24.1268 6.03259 24.5249 6.19855 24.8401 6.47641ZM22.625 25.0624C24.1004 25.0586 26.4375 23.423 26.4375 19.3436C26.4375 17.2353 26.0219 16.2021 25.5644 15.5159C25.2863 15.115 24.9654 14.7456 24.6075 14.4141L24.1347 13.9718C23.8259 13.6821 23.4637 13.3466 23.1816 13.0682C22.7646 12.6556 22.4067 12.1873 22.1179 11.6767C21.6326 12.1869 21.2056 12.7496 20.8446 13.3542C20.3108 14.1739 19.7923 15.2986 19.4072 16.4576C19.0107 17.6394 18.8125 18.6841 18.8125 19.3436C18.8125 23.4306 21.1572 25.0624 22.625 25.0624H22.6326H22.625ZM20.795 29.7594C20.2536 30.419 19.8038 31.4712 19.4759 32.8971C18.8201 35.7489 18.8125 39.3326 18.8125 42.2187C18.8125 52.562 20.2269 57.972 21.4965 60.7208C21.9159 61.6244 22.3086 62.2267 22.625 62.6271C23.0754 62.0387 23.4543 61.3987 23.7535 60.7208C25.0231 57.972 26.4375 52.562 26.4375 42.2187C26.4375 39.3326 26.4299 35.7489 25.7703 32.8971C25.4424 31.4712 24.9926 30.419 24.455 29.7594C24.2447 29.4745 23.9682 29.245 23.6493 29.0909C23.3305 28.9368 22.9789 28.8627 22.625 28.8749H22.6174C22.2647 28.8636 21.9145 28.9382 21.597 29.0923C21.2796 29.2464 21.0043 29.4753 20.795 29.7594Z" fill="white"/>
</svg>
