<svg width="19" height="21" viewBox="0 0 19 21" fill="none" xmlns="http://www.w3.org/2000/svg">
<path d="M13.8154 16.9718L12.3735 15.3777L11.5885 16.2455L13.8154 18.7074L17.7124 14.3991L16.9274 13.5313L13.8154 16.9718ZM8.80491 14.7622H9.91835V15.9932H8.80491V14.7622ZM5.4646 14.7622H6.57804V15.9932H5.4646V14.7622ZM12.1452 11.6849H13.2587V12.9158H12.1452V11.6849ZM8.80491 11.6849H9.91835V12.9158H8.80491V11.6849ZM5.4646 11.6849H6.57804V12.9158H5.4646V11.6849ZM12.1452 8.60759H13.2587V9.83852H12.1452V8.60759ZM8.80491 8.60759H9.91835V9.83852H8.80491V8.60759ZM5.4646 8.60759H6.57804V9.83852H5.4646V8.60759ZM5.4646 4.91479H13.2587V6.76119H5.4646V4.91479Z" fill="#333333"/>
<path d="M9.91838 19.0704H3.79725C3.5013 19.0701 3.21756 18.94 3.00829 18.7086C2.79902 18.4773 2.68133 18.1636 2.68103 17.8364V3.06587C2.68133 2.74016 2.79849 2.42788 3.00682 2.19757C3.21515 1.96726 3.49762 1.83773 3.79224 1.8374H14.9311C15.2257 1.83773 15.5082 1.96726 15.7165 2.19757C15.9248 2.42788 16.042 2.74016 16.0423 3.06587V11.6848H14.9289V3.06833H3.79447V17.8395H9.91838V19.0704Z" fill="#333333"/>
</svg>
