<svg width="25" height="25" viewBox="0 0 25 25" fill="none" xmlns="http://www.w3.org/2000/svg">
<g clip-path="url(#clip0_19521_306)">
<path d="M7.13889 17.3612V17.8612H7.63889H11.3137L11.7026 18.2501H6.75V13.2974L7.13889 13.6863V17.3612Z" stroke="#333333"/>
<path d="M23.8593 22.7747L23.8593 22.7748L23.8632 22.7786C23.8906 22.8058 23.9093 22.8406 23.9169 22.8785C23.9245 22.9163 23.9207 22.9556 23.9059 22.9913C23.8911 23.0269 23.866 23.0574 23.8338 23.0787C23.8016 23.1001 23.7638 23.1114 23.7252 23.1111H23.7223H2.08337C2.0318 23.1111 1.98234 23.0906 1.94588 23.0542C1.90941 23.0177 1.88893 22.9683 1.88893 22.9167V1.38891H1.88894L1.88892 1.38601C1.88869 1.34738 1.89998 1.30957 1.92133 1.27739C1.94268 1.2452 1.97313 1.2201 2.0088 1.20529C2.04447 1.19048 2.08374 1.18663 2.12161 1.19423C2.15948 1.20183 2.19422 1.22053 2.22142 1.24795L2.22141 1.24796L2.22375 1.25028L13.3473 12.319V12.8672L3.13037 2.70797L2.27782 1.86023V3.06252V6.94447V7.44447H2.77782H3.66671V7.55558H2.77782H2.27782V8.05558V12.5V13H2.77782H3.66671V13.1111H2.77782H2.27782V13.6111V18.2292V18.7292H2.77782H3.66671V18.8403H2.77782H2.27782V19.3403V22.2222V22.7222H2.77782H22.2223H22.7223V22.2222V21.6218L23.8593 22.7747ZM2.08337 23.6111H23.7223L2.57643 0.895857C2.4793 0.79792 2.3552 0.731128 2.21996 0.703997C2.08471 0.676865 1.94446 0.690623 1.81707 0.743516C1.68967 0.79641 1.58092 0.886043 1.50467 1.00099C1.42842 1.11593 1.38813 1.25098 1.38893 1.38891V22.9167C1.38893 23.1009 1.46209 23.2775 1.59233 23.4077C1.72256 23.538 1.89919 23.6111 2.08337 23.6111Z" stroke="#333333"/>
<path d="M17.8894 2.92015L17.5694 3.54213L16.2221 6.16019L16.1667 6.26787V6.38897V16.6667V17.1667H16.6667H19.4445H19.9445V16.6667V6.39591V6.26851L19.8835 6.15665L18.453 3.53165L18.1161 2.91354C18.2411 2.92524 18.3626 2.96333 18.4724 3.02571C18.6083 3.1029 18.7213 3.21453 18.8003 3.3493L20.3334 6.16889V19.4445C20.3334 19.6803 20.2397 19.9064 20.073 20.0731C19.9063 20.2398 19.6802 20.3334 19.4445 20.3334H16.6667C16.431 20.3334 16.2049 20.2398 16.0382 20.0731C15.8715 19.9064 15.7778 19.6803 15.7778 19.4445V6.17845L17.2348 3.39145L17.2348 3.39145L17.2357 3.38979C17.3101 3.24619 17.4222 3.12561 17.5601 3.04103L17.2986 2.61487L17.5601 3.04103C17.6611 2.97903 17.7731 2.9381 17.8894 2.92015ZM16.6667 17.2987H16.1667V17.7987V19.4931V19.9931H16.6667H19.4445H19.9445V19.4931V17.7987V17.2987H19.4445H16.6667Z" stroke="#333333"/>
</g>
<defs>
<clipPath id="clip0_19521_306">
<rect width="25" height="25" fill="white"/>
</clipPath>
</defs>
</svg>
