<svg width="18" height="15" viewBox="0 0 18 15" fill="none" xmlns="http://www.w3.org/2000/svg">
<path d="M18 2.5H15.3643C15.0429 1.0625 13.7571 0 12.2143 0C10.6714 0 9.38571 1.0625 9.06429 2.5H0V3.75H9.06429C9.38571 5.1875 10.6714 6.25 12.2143 6.25C13.7571 6.25 15.0429 5.1875 15.3643 3.75H18V2.5ZM12.2143 5C11.1214 5 10.2857 4.1875 10.2857 3.125C10.2857 2.0625 11.1214 1.25 12.2143 1.25C13.3071 1.25 14.1429 2.0625 14.1429 3.125C14.1429 4.1875 13.3071 5 12.2143 5ZM0 12.5H2.63571C2.95714 13.9375 4.24286 15 5.78571 15C7.32857 15 8.61429 13.9375 8.93571 12.5H18V11.25H8.93571C8.61429 9.8125 7.32857 8.75 5.78571 8.75C4.24286 8.75 2.95714 9.8125 2.63571 11.25H0V12.5ZM5.78571 10C6.87857 10 7.71429 10.8125 7.71429 11.875C7.71429 12.9375 6.87857 13.75 5.78571 13.75C4.69286 13.75 3.85714 12.9375 3.85714 11.875C3.85714 10.8125 4.69286 10 5.78571 10Z" fill="#333333"/>
</svg>
