<svg width="10" height="19" viewBox="0 0 10 19" fill="none" xmlns="http://www.w3.org/2000/svg">
<path d="M1.33568 18.7057C1.02414 18.7063 0.722229 18.5978 0.482346 18.399C0.347335 18.2871 0.235733 18.1496 0.15393 17.9945C0.0721275 17.8393 0.0217324 17.6696 0.00563123 17.4949C-0.0104699 17.3203 0.00803944 17.1442 0.0600988 16.9767C0.112158 16.8093 0.196744 16.6537 0.309013 16.519L6.28235 9.37232L0.522347 2.21232C0.411593 2.07593 0.328884 1.919 0.278975 1.75055C0.229066 1.5821 0.212941 1.40544 0.231526 1.23074C0.250112 1.05604 0.303041 0.886727 0.387273 0.732544C0.471504 0.578362 0.585378 0.442347 0.722347 0.332316C0.860301 0.210935 1.02186 0.119378 1.19687 0.0633924C1.37189 0.00740701 1.55659 -0.0117979 1.73938 0.00698193C1.92217 0.0257618 2.09911 0.0821214 2.25908 0.172524C2.41906 0.262926 2.55862 0.38542 2.66901 0.532317L9.10901 8.53232C9.30512 8.77089 9.41233 9.07015 9.41233 9.37898C9.41233 9.68782 9.30512 9.98707 9.10901 10.2257L2.44235 18.2257C2.30859 18.387 2.13868 18.5146 1.9464 18.598C1.75412 18.6814 1.54489 18.7183 1.33568 18.7057Z" fill="#333333"/>
</svg>
