<svg width="11" height="10" viewBox="0 0 11 10" fill="none" xmlns="http://www.w3.org/2000/svg">
<path fill-rule="evenodd" clip-rule="evenodd" d="M0.480713 5.36531C0.480713 5.19391 0.549143 5.02954 0.670949 4.90835C0.792755 4.78715 0.957959 4.71907 1.13022 4.71907H8.65539L5.86641 1.94541C5.74445 1.82407 5.67594 1.65948 5.67594 1.48788C5.67594 1.31627 5.74445 1.15168 5.86641 1.03034C5.98837 0.908992 6.15379 0.84082 6.32626 0.84082C6.49874 0.84082 6.66415 0.908992 6.78611 1.03034L10.6831 4.90777C10.7436 4.9678 10.7916 5.03911 10.8244 5.11762C10.8571 5.19613 10.874 5.2803 10.874 5.36531C10.874 5.45031 10.8571 5.53447 10.8244 5.61299C10.7916 5.6915 10.7436 5.76281 10.6831 5.82284L6.78611 9.70027C6.66415 9.82162 6.49874 9.88979 6.32626 9.88979C6.15379 9.88979 5.98837 9.82162 5.86641 9.70027C5.74445 9.57893 5.67594 9.41434 5.67594 9.24273C5.67594 9.07113 5.74445 8.90654 5.86641 8.7852L8.65539 6.01154H1.13022C0.957959 6.01154 0.792755 5.94346 0.670949 5.82227C0.549143 5.70107 0.480713 5.5367 0.480713 5.36531Z" fill="#333333"/>
</svg>
