<svg width="32" height="36" viewBox="0 0 32 36" fill="none" xmlns="http://www.w3.org/2000/svg">
<path fill-rule="evenodd" clip-rule="evenodd" d="M8 17.9997C8 17.708 8.10536 17.4282 8.29289 17.2219C8.48043 17.0156 8.73478 16.8997 9 16.8997H20.586L16.292 12.1785C16.1042 11.972 15.9987 11.6918 15.9987 11.3997C15.9987 11.1076 16.1042 10.8275 16.292 10.6209C16.4798 10.4144 16.7344 10.2983 17 10.2983C17.2656 10.2983 17.5202 10.4144 17.708 10.6209L23.708 17.2209C23.8011 17.3231 23.875 17.4445 23.9254 17.5781C23.9758 17.7118 24.0018 17.855 24.0018 17.9997C24.0018 18.1444 23.9758 18.2877 23.9254 18.4213C23.875 18.555 23.8011 18.6763 23.708 18.7785L17.708 25.3785C17.5202 25.5851 17.2656 25.7011 17 25.7011C16.7344 25.7011 16.4798 25.5851 16.292 25.3785C16.1042 25.172 15.9987 24.8918 15.9987 24.5997C15.9987 24.3076 16.1042 24.0275 16.292 23.8209L20.586 19.0997H9C8.73478 19.0997 8.48043 18.9838 8.29289 18.7775C8.10536 18.5713 8 18.2915 8 17.9997Z" fill="white"/>
</svg>
