<svg width="14" height="14" viewBox="0 0 14 14" fill="none" xmlns="http://www.w3.org/2000/svg">
<g opacity="0.7">
<path d="M6.86702 2.18412C7.51493 1.53963 8.38921 1.17411 9.30304 1.16568C10.2169 1.15724 11.0977 1.50656 11.7574 2.13898C12.4171 2.7714 12.8033 3.63676 12.8334 4.55013C12.8636 5.4635 12.5353 6.35243 11.9187 7.02695L11.8084 7.14187L6.6751 12.274L6.6541 12.2915C6.25444 12.6514 5.73548 12.8501 5.19769 12.8493C4.6599 12.8485 4.14154 12.6482 3.74296 12.2872C3.34438 11.9261 3.09393 11.43 3.04011 10.8949C2.98629 10.3598 3.13292 9.82381 3.4516 9.39062C3.4655 9.36371 3.48211 9.3383 3.50119 9.31478L3.53269 9.27978L3.58344 9.22845L3.66569 9.14212L3.66744 9.14387L8.0051 4.7957C8.07911 4.72152 8.17728 4.67636 8.28176 4.66844C8.38624 4.66052 8.4901 4.69036 8.57444 4.75253L8.62344 4.79512C8.69762 4.86912 8.74278 4.96729 8.7507 5.07177C8.75862 5.17625 8.72878 5.28011 8.6666 5.36445L8.6246 5.41345L4.19419 9.85437C3.98914 10.106 3.88554 10.4251 3.90375 10.7492C3.92195 11.0732 4.06063 11.3787 4.29257 11.6058C4.5245 11.8328 4.83293 11.965 5.1573 11.9762C5.48167 11.9875 5.79853 11.8772 6.04569 11.6668L11.1983 6.51595C11.6757 6.03034 11.9458 5.37826 11.9517 4.69729C11.9575 4.01631 11.6986 3.3597 11.2295 2.86598C10.7605 2.37227 10.118 2.08006 9.43763 2.05101C8.75725 2.02196 8.09219 2.25834 7.58277 2.71028L7.48477 2.80362L7.47777 2.81178L1.91452 8.37445C1.83646 8.45273 1.73165 8.49855 1.62118 8.50271C1.5107 8.50686 1.40275 8.46904 1.31903 8.39684C1.23531 8.32465 1.18202 8.22343 1.16988 8.11355C1.15774 8.00367 1.18766 7.89326 1.2536 7.80453L1.29619 7.75553L6.86644 2.1847H6.86702V2.18412Z" fill="white"/>
</g>
</svg>
