<svg width="26" height="27" viewBox="0 0 26 27" fill="none" xmlns="http://www.w3.org/2000/svg">
<path d="M13 0C5.81855 0 0 5.85352 0 13.0781C0 20.3027 5.81855 26.1562 13 26.1562C20.1815 26.1562 26 20.3027 26 13.0781C26 5.85352 20.1815 0 13 0ZM19.3847 8.95957L17.2512 19.074C17.094 19.7912 16.6694 19.9652 16.077 19.6277L12.827 17.2178L11.2597 18.7365C11.0867 18.9105 10.9399 19.0582 10.6044 19.0582L10.8351 15.7307L16.8581 10.2568C17.1202 10.0248 16.8004 9.89297 16.4544 10.125L9.01089 14.8395L5.80282 13.8322C5.10564 13.6107 5.08992 13.1309 5.9496 12.7934L18.4831 7.93125C19.0649 7.72031 19.5734 8.07363 19.3847 8.95957Z" fill="#333333"/>
</svg>
