<svg width="28" height="28" viewBox="0 0 28 28" fill="none" xmlns="http://www.w3.org/2000/svg">
<path d="M13.9776 0.537598C6.5548 0.537598 0.537598 6.5548 0.537598 13.9776C0.537598 21.4004 6.5548 27.4176 13.9776 27.4176C21.4004 27.4176 27.4176 21.4004 27.4176 13.9776C27.4176 6.5548 21.4004 0.537598 13.9776 0.537598ZM19.1464 15.701C19.1464 15.701 20.335 16.8742 20.6276 17.4188C20.636 17.43 20.6402 17.4412 20.643 17.4468C20.762 17.647 20.79 17.8024 20.7312 17.9186C20.6332 18.1118 20.2972 18.207 20.1824 18.2154H18.0824C17.9368 18.2154 17.6316 18.1776 17.262 17.9228C16.9778 17.724 16.6978 17.3978 16.4248 17.08C16.0174 16.6068 15.6646 16.198 15.309 16.198C15.2638 16.1979 15.2189 16.205 15.176 16.219C14.9072 16.3058 14.5628 16.6894 14.5628 17.7114C14.5628 18.0306 14.3108 18.214 14.133 18.214H13.1712C12.8436 18.214 11.137 18.0992 9.625 16.5046C7.7742 14.5516 6.1082 10.6344 6.0942 10.598C5.9892 10.3446 6.2062 10.2088 6.4428 10.2088H8.5638C8.8466 10.2088 8.939 10.381 9.0034 10.5336C9.079 10.7114 9.3562 11.4184 9.8112 12.2136C10.549 13.51 11.0012 14.0364 11.3638 14.0364C11.4318 14.0356 11.4986 14.0183 11.5584 13.986C12.0316 13.7228 11.9434 12.0358 11.9224 11.6858C11.9224 11.62 11.921 10.9312 11.6788 10.6008C11.5052 10.3614 11.2098 10.2704 11.0306 10.2368C11.1031 10.1367 11.1987 10.0556 11.3092 10.0002C11.634 9.8378 12.2192 9.814 12.8002 9.814H13.1236C13.7536 9.8224 13.916 9.863 14.1442 9.9204C14.6062 10.031 14.616 10.3292 14.5754 11.3498C14.5628 11.6396 14.5502 11.9672 14.5502 12.3536C14.5502 12.4376 14.546 12.5272 14.546 12.6224C14.532 13.1418 14.5152 13.7312 14.882 13.9734C14.9298 14.0034 14.9851 14.0194 15.0416 14.0196C15.169 14.0196 15.5526 14.0196 16.5914 12.2374C16.9118 11.6638 17.1902 11.0677 17.4244 10.4538C17.4454 10.4174 17.507 10.3054 17.5798 10.262C17.6335 10.2346 17.6931 10.2207 17.7534 10.2214H20.2468C20.5184 10.2214 20.7046 10.262 20.7396 10.367C20.8012 10.5336 20.7284 11.0418 19.5902 12.5832L19.082 13.2538C18.0502 14.6062 18.0502 14.6748 19.1464 15.701Z" fill="#6CA715"/>
</svg>
