<svg width="28" height="27" viewBox="0 0 28 27" fill="none" xmlns="http://www.w3.org/2000/svg">
<path d="M16.4321 13.2062L13.2877 11.739C13.0133 11.6116 12.7879 11.7544 12.7879 12.0582V14.8218C12.7879 15.1256 13.0133 15.2684 13.2877 15.141L16.4307 13.6738C16.7065 13.545 16.7065 13.335 16.4321 13.2062ZM14.1879 0C6.76513 0 0.747925 6.0172 0.747925 13.44C0.747925 20.8628 6.76513 26.88 14.1879 26.88C21.6107 26.88 27.6279 20.8628 27.6279 13.44C27.6279 6.0172 21.6107 0 14.1879 0ZM14.1879 18.9C7.30833 18.9 7.18792 18.2798 7.18792 13.44C7.18792 8.6002 7.30833 7.98 14.1879 7.98C21.0675 7.98 21.1879 8.6002 21.1879 13.44C21.1879 18.2798 21.0675 18.9 14.1879 18.9Z" fill="#333333"/>
</svg>
